inDegrees=no
num_controls=7
num_derivatives=13
num_iterations=152
num_multipliers=7
num_parameters=0
num_slacks=7
num_states=26
objective=0.476745
objective_accelerations=0.044514
objective_balance=0.003623
objective_effort=0.040649
objective_height=0.382299
objective_ligament=0.005660
solver_duration=2103.275097
status=Solve_Succeeded
success=true
DataType=double
version=3
OpenSimVersion=4.5
endheader
time	/jointset/ground_pelvis/pelvis_tilt/value	/jointset/ground_pelvis/pelvis_tx/value	/jointset/ground_pelvis/pelvis_ty/value	/jointset/hip_l/hip_flexion_l/value	/jointset/hip_l/hip_adduction_l/value	/jointset/hip_l/hip_rotation_l/value	/jointset/back/lumbar_extension/value	/jointset/patellofemoral_l/patellar_flexion_l/value	/jointset/knee_l/knee_flexion_l/value	/jointset/knee_l/knee_adduction_l/value	/jointset/knee_l/knee_rotation_l/value	/jointset/ankle_l/ankle_angle_l/value	/jointset/subtalar_l/subtalar_angle_l/value	/jointset/ground_pelvis/pelvis_tilt/speed	/jointset/ground_pelvis/pelvis_tx/speed	/jointset/ground_pelvis/pelvis_ty/speed	/jointset/hip_l/hip_flexion_l/speed	/jointset/hip_l/hip_adduction_l/speed	/jointset/hip_l/hip_rotation_l/speed	/jointset/back/lumbar_extension/speed	/jointset/patellofemoral_l/patellar_flexion_l/speed	/jointset/knee_l/knee_flexion_l/speed	/jointset/knee_l/knee_adduction_l/speed	/jointset/knee_l/knee_rotation_l/speed	/jointset/ankle_l/ankle_angle_l/speed	/jointset/subtalar_l/subtalar_angle_l/speed	/forceset/tau_hip_flexion_l	/forceset/tau_hip_adduction_l	/forceset/tau_hip_rotation_l	/forceset/tau_knee_flexion_l	/forceset/tau_ankle_angle_l	/forceset/tau_subtalar_angle_l	/forceset/tau_lumbar_extension	lambda_cid13_p0	lambda_cid13_p1	lambda_cid13_p2	lambda_cid13_p3	lambda_cid13_p4	lambda_cid13_p5	lambda_cid14_p0	/jointset/ground_pelvis/pelvis_tilt/accel	/jointset/ground_pelvis/pelvis_tx/accel	/jointset/ground_pelvis/pelvis_ty/accel	/jointset/hip_l/hip_flexion_l/accel	/jointset/hip_l/hip_adduction_l/accel	/jointset/hip_l/hip_rotation_l/accel	/jointset/back/lumbar_extension/accel	/jointset/patellofemoral_l/patellar_flexion_l/accel	/jointset/knee_l/knee_flexion_l/accel	/jointset/knee_l/knee_adduction_l/accel	/jointset/knee_l/knee_rotation_l/accel	/jointset/ankle_l/ankle_angle_l/accel	/jointset/subtalar_l/subtalar_angle_l/accel	gamma_cid13_p0	gamma_cid13_p1	gamma_cid13_p2	gamma_cid13_p3	gamma_cid13_p4	gamma_cid13_p5	gamma_cid14_p0
0.5	-0.09475066544883172	-0.04235006795036503	0.8057223546063659	0.934355484145559	-0.3296890457811134	-0.0776305086092022	-0.7918065209050273	0.9252387440832508	0.925238744083297	-0.1027686487829406	-0.1744956092871159	0.150022611953878	0.0136611151231596	-0.1274426501021619	-0.1566154890423922	-0.4194864695003356	1.603957454267379	-0.02938741576434418	0.5655262269154512	-0.8370051451831526	1.791456324615469	1.791456324615504	0.1515301278860466	0.0001482692297353985	0.4370976161830177	0.1171889113825709	-0.2713047733655591	0.01766524116538312	-0.00483292186128794	-0.2501640145984066	0.08759963449340442	0.04771637389572227	0.3280659401647836	-15.87403025006971	-19.63994267753695	4.614246979042266	-10.08995933333392	-701.8046898716209	-77.55823534062337	-9.593067600097889	0.2851962463911132	0.6882896404228752	-0.1921375707214943	-1.530960031652115	0.331566768205711	-0.5169513009346183	1.922026920102089	-1.427699644474249	-1.42769964447425	-0.2160899391929197	-0.005086590228635536	-0.2518082599323918	0.3474053317466697	-2.596156759696737e-07	-1.587866135200599e-07	1.557228339616814e-06	1.466569145357211e-07	-2.870845113586341e-07	-9.211794688605237e-08	-2.212769203332588e-07
0.51	-0.09601064080779562	-0.04388178716609323	0.8015188219419429	0.9503160898115731	-0.3299671883757332	-0.0720001655657737	-0.8000795894570014	0.9430791251201531	0.9430791251201659	-0.1012667765223325	-0.1744942585455655	0.1543799382689869	0.01484906338425446	-0.1245322107862301	-0.1497275035603515	-0.4211237099734095	1.587940957964713	-0.02624987883090758	0.5604775609918894	-0.8175204984456912	1.776364686786847	1.776364686786881	0.148839007010567	0.0001210780741219121	0.4342967021935661	0.1203720952020297	-0.2775704696122324	0.01795460102128209	-0.004966958560072837	-0.2537851889707325	0.0864499785582022	0.04780020004378015	0.3343607151401145	-16.50631069866745	-19.51067046433493	4.530847574207935	-9.845438057245373	-706.4138955685925	-77.42631762268147	-8.864846488557504	0.2969754333150106	0.6892100714069764	-0.1351196917856241	-1.670434367247172	0.3033189854208626	-0.5087496794061929	1.974893565542999	-1.58813198980563	-1.58813198980554	-0.2964147209001874	-0.001351321730921092	-0.3048722453552024	0.2993180794979378	-2.503021379765924e-07	-1.558086566731112e-07	1.518287016321951e-06	1.418348730120734e-07	-2.732635120258775e-07	-6.319733728505671e-08	-2.169307779742043e-07
0.52	-0.09724091024177754	-0.04534459511313874	0.7973017963915523	0.9661098425270247	-0.3302142612351158	-0.06642229426984908	-0.8081551695386062	0.9607609425512191	0.9607609425512004	-0.09979197378231563	-0.1744931429042707	0.1587071275888208	0.01606795211803445	-0.121501465105459	-0.1428332353058514	-0.4221850466938917	1.570586864155112	-0.02317346871714349	0.5550318774147593	-0.7975074511092293	1.75974360344825	1.759743603448286	0.1461162237681004	0.0001012491783800288	0.4310702171279676	0.1233770059195865	-0.2838361658589061	0.01824396087718343	-0.005100995258862736	-0.2574063633430578	0.08530032262300145	0.04788402619184132	0.3406554901154443	-17.14039411068118	-19.38144573002166	4.447871973836336	-9.647261045636487	-711.0845979036474	-77.34743556748631	-8.138918939368002	0.3092575193590512	0.6895461949147128	-0.07695682020316144	-1.798479533039191	0.3193414042712125	-0.5963548316482592	2.027707039902248	-1.733588746468975	-1.733588746468969	-0.2224224125902882	-0.003614138254313663	-0.3369224751618477	0.311750711366229	-2.461840665760348e-07	-2.075821432236391e-07	1.469076117213198e-06	1.305099599186366e-07	-2.655346416230783e-07	-5.15181032774066e-08	-2.182159266511298e-07
0.53	-0.09844030694163378	-0.0467384865947448	0.7930770532075644	0.9817234939667063	-0.3304309284141792	-0.06090101375947335	-0.8160281802480911	0.9782690529100574	0.9782690529100569	-0.09834446214529902	-0.1744924117399309	0.1629999831446064	0.01731594128230758	-0.118361650518187	-0.1359493948941444	-0.4226660255146463	1.551932342001987	-0.02017183872263412	0.5491637500468591	-0.7770251351177119	1.741636499058515	1.741636499058559	0.1433809222643589	4.536561784009976e-05	0.4274365177498193	0.1261897080233821	-0.2897453162414003	0.01844483542179703	-0.00519110898104622	-0.2612272070280366	0.08432017738453287	0.04776461342236887	0.3466072043311296	-17.7227589573612	-19.16230710941348	4.338335169992739	-9.39083624432085	-715.6237097113305	-77.14058131402091	-7.424565505074884	0.3187544848774999	0.6871777946424545	-0.0190860196878467	-1.930630521323226	0.2886051255644814	-0.5913150299068695	2.068927229359438	-1.88552289613191	-1.885522896130606	-0.2998812452471776	-0.006232151327905319	-0.386252678158177	0.2612304305000154	-2.366368301566605e-07	-2.086620745832878e-07	1.424431623916408e-06	1.249480661408068e-07	-2.528383953323437e-07	-2.589112439878055e-08	-2.135413978909396e-07
0.54	-0.09960782328432538	-0.04806366470616521	0.7888504167140337	0.9971442617918808	-0.3306179730275917	-0.05544026919088676	-0.8236942811275446	0.9955888419028165	0.9955888419028368	-0.09692446296851637	-0.1744921707484706	0.1672545699048073	0.01859109756174148	-0.1151253936722591	-0.1290905612687173	-0.4225637086024472	1.532010141253896	-0.01724895558717852	0.5429246890571213	-0.7561254851028698	1.722079330232536	1.722079330232589	0.1406137317213747	3.214602337621133e-06	0.423416458010996	0.1288104289517294	-0.2956544666238961	0.01864570996641153	-0.005281222703225119	-0.2650480507130155	0.08334003214606528	0.0476452006528978	0.3525589185468133	-18.30651104147621	-18.94620751165543	4.233032860884097	-9.18612244616301	-720.2128708911391	-76.98984596984644	-6.744059797055906	0.3285459710903057	0.6845448376587004	0.03970232638757838	-2.052015252032545	0.3035920324604662	-0.670541556015767	2.111173844567222	-2.023601633717699	-2.023601633717704	-0.2288002204387942	-0.0008676292468204033	-0.4141945472969134	0.2733544762765733	-2.210828579717867e-07	-1.536555193487717e-07	1.384839324283917e-06	1.257622788398188e-07	-2.346463289102764e-07	1.516740199667013e-08	-2.022731834556427e-07
0.55	-0.1007425318662258	-0.04932044601850703	0.7846277204833244	1.012359645467218	-0.3307761260993535	-0.05004372411359247	-0.8311494270507439	1.012705979172973	1.012705979173046	-0.09553216273771956	-0.1744922294581873	0.1714671016578659	0.01989157472268095	-0.1118012661000954	-0.1222762121231874	-0.421877368598383	1.510864172431294	-0.01439721484831115	0.5363205118250732	-0.7348494063424879	1.701117040533228	1.701117040533284	0.1378434537320999	-1.924801498754419e-05	0.4190289759003904	0.1312495838908353	-0.3013476499109657	0.01873136986388146	-0.005326450776280889	-0.268837906415163	0.08214333195894162	0.04744958166296968	0.3582507398070404	-18.95864957146878	-18.68344362856669	4.118469076309763	-8.827062575579989	-724.6614614635904	-76.79522535479134	-6.099506659290698	0.3365846505348188	0.6783285556096914	0.09778023386206737	-2.176277370929844	0.2734444826032679	-0.6651062794806967	2.143968871020407	-2.167165902457816	-2.167165902457447	-0.3015801208752581	-0.003307606944481736	-0.4601600216307427	0.2237428273033218	-2.038905367811978e-07	-9.423904389976259e-08	1.338688580901867e-06	1.262249304140052e-07	-2.152642112292829e-07	5.537098880585488e-08	-1.894437133603307e-07
0.5600000000000001	-0.1018435514723546	-0.0505093941188718	0.7804148237319453	1.027357491519618	-0.3309062658861249	-0.04471517090315624	-0.8383901833904902	1.029606568893252	1.02960656889338	-0.09416765299335782	-0.1744925871998693	0.1756339315940808	0.02121535279792668	-0.1083875985177085	-0.1155239188733036	-0.420603812736467	1.488502616666459	-0.01164629858930879	0.5293263156857712	-0.7132475684122305	1.678769820257099	1.678769820257157	0.1350556344346888	-5.65917910771124e-05	0.4142760946422501	0.1334706118129704	-0.3070408331980377	0.01881702976135144	-0.005371678849341691	-0.2726277621173104	0.08094663177181884	0.04725396267304202	0.3639425610672651	-19.61294830761768	-18.42350371219718	4.008014413222961	-8.515643763734168	-729.1678543649415	-76.65378934687415	-5.491432605204765	0.3464539731350228	0.6721336585294296	0.1571454979579089	-2.295132640479011	0.2834271364874714	-0.7485453374665737	2.176325678542342	-2.300587749082063	-2.300587749082066	-0.2323084820660222	-0.003843860999695449	-0.4872743768038966	0.2297290728824023	-1.847321967837507e-07	-2.953066419336222e-08	1.284667705020343e-06	1.262657086384011e-07	-1.944540320375782e-07	9.454864811152055e-08	-1.747407364730006e-07
0.5700000000000001	-0.1029100371677101	-0.05163117637565953	0.7762175843431919	1.042125845040512	-0.3310093016102241	-0.03945839867001983	-0.845413410889757	1.046276972090832	1.046276972090869	-0.09283095225380256	-0.1744932371401277	0.1797515311273398	0.02256039137666336	-0.1048963782830429	-0.1088472601338379	-0.4187466093213109	1.464975562372502	-0.008978889656520626	0.5219683152344775	-0.6913588806242391	1.655094114005801	1.655094114005809	0.1322806860250967	-7.665565970242746e-05	0.4091902021804302	0.1354999747022404	-0.3124111161727494	0.01883251848142181	-0.005370757604300529	-0.2764705527839203	0.07975779208397454	0.04691342200030163	0.3692956156658839	-20.26081655600043	-18.09568595181225	3.879810112288632	-8.123101484111229	-733.4650126420763	-76.41652718355787	-4.919999828094532	0.3524136121931376	0.66324809183657	0.2145895806815035	-2.410393090881213	0.25550794813417	-0.7385477382673925	2.20099795153319	-2.433534566349169	-2.43353456635659	-0.3006569115470325	-0.001324851192043542	-0.5272795291326877	0.1838219212012767	-1.656775535217571e-07	2.913407679428857e-08	1.225994305992427e-06	1.251261852352466e-07	-1.741178462233433e-07	1.298740185835263e-07	-1.601106587948303e-07
0.58	-0.1039412191480077	-0.05268662882301645	0.7720418333520674	1.05665314776506	-0.3310862412097024	-0.03427703050925956	-0.852216579986623	1.062704123725262	1.062704123725206	-0.09152211477657382	-0.1744941351593498	0.1838166651663282	0.02392457998914321	-0.1013268555059396	-0.1022579569871417	-0.4163061332106702	1.440292457397458	-0.006427073665345812	0.5142455012109195	-0.6692358879320162	1.630119507626685	1.630119507626644	0.1294829819698559	-0.0001062075842512908	0.4037829957881439	0.1373006185615898	-0.3177813991474644	0.01884800720149095	-0.005369836359268847	-0.2803133434505303	0.07856895239613081	0.04657288132756011	0.3746486702644999	-20.91184117412751	-17.76994840029551	3.754945955035779	-7.773077671965339	-737.8304325862697	-76.22751789937671	-4.385411835228806	0.3621144816226045	0.6546625399754757	0.2738000370547949	-2.526342776696442	0.2603085481648073	-0.8215080519194614	2.223186659388726	-2.560367774645586	-2.560367774645592	-0.2368596111957699	-0.005741472184397394	-0.5515371628972614	0.1839852668982757	-1.467579571710518e-07	7.992803247380006e-08	1.16126180705293e-06	1.224495248287707e-07	-1.543989541099996e-07	1.60182454760533e-07	-1.455755196216124e-07
0.59	-0.1049363782541894	-0.05367666987017992	0.7678933900096648	1.070928016217576	-0.3311381351089811	-0.02917468750531652	-0.8587974467109271	1.078875184459993	1.078875184459989	-0.09024117144322606	-0.1744952485293284	0.187826215181046	0.02530577133166469	-0.09769508375878151	-0.09576905903067773	-0.4132856627233183	1.414496913735294	-0.003971584417234569	0.506164492435328	-0.6469119137605361	1.603884747607224	1.603884747607234	0.1267014027283108	-0.0001188795229158166	0.3980778890281502	0.1388984666628849	-0.322830600760083	0.01873022095372714	-0.005320733996672103	-0.2841806755222006	0.07733081962720824	0.04617872260937154	0.3796622732953682	-21.57125333981154	-17.41804323052396	3.624295231403822	-7.334928524326813	-741.9801688355566	-76.02948463063042	-3.887231747727303	0.3651773166109497	0.6432066118588579	0.3306728672349586	-2.63382646182466	0.2350145244087885	-0.8103068563849277	2.240834271334625	-2.686186460428318	-2.686186460420647	-0.2994331146913176	0.0008353550107517123	-0.5873517192005181	0.1416572360259062	-1.276868855274744e-07	1.251338394294864e-07	1.089396654324279e-06	1.183443861861707e-07	-1.345422533098178e-07	1.856821155086946e-07	-1.307264636198161e-07
